<svg width="433" height="433" viewBox="0 0 433 433" fill="none" xmlns="http://www.w3.org/2000/svg">
  <path d="M234.755 46.3079L50.8637 85.3953C22.7724 91.3663 4.84043 118.979 10.8114 147.07L60.7102 381.826C66.6812 409.917 94.2941 427.849 122.385 421.878L306.277 382.791C334.368 376.82 352.3 349.207 346.329 321.116L296.431 86.3602C290.46 58.269 262.847 40.3369 234.755 46.3079Z" fill="url(#a)"/>
  <path d="M284.159 29.6109L91.0522 48.2049C61.3661 51.0634 39.618 77.4459 42.4765 107.132L66.0545 351.999C68.9129 381.686 95.2955 403.434 124.982 400.575L318.088 381.981C347.774 379.123 369.523 352.74 366.664 323.054L343.086 78.1866C340.228 48.5005 313.845 26.7524 284.159 29.6109Z" fill="url(#b)"/>
  <path d="M375.134 32.1735L170.67 7.06842C138.876 3.16464 109.938 25.7739 106.034 57.5677L74.5915 313.645C70.6877 345.438 93.297 374.377 125.091 378.281L329.555 403.386C361.349 407.29 390.288 384.68 394.191 352.887L425.634 96.8096C429.537 65.0159 406.928 36.0773 375.134 32.1735Z" fill="url(#c)"/>
  <path fill-rule="evenodd" clip-rule="evenodd" d="M165.36 74.9272L266.6 87.3579C325.16 94.5481 354.885 131.446 348.304 185.043C341.48 240.626 301.726 268.993 243.166 261.802L208.427 257.537L199.774 328.008L135.259 320.086L165.36 74.9272ZM222.807 140.416L215.252 201.954L248.998 206.098C269.842 208.657 282.1 199.08 284.538 179.229C286.975 159.378 277.398 147.119 256.554 144.56C243.375 142.942 235.986 142.035 222.807 140.416Z" fill="white"/>
  <defs>
    <linearGradient id="a" x1="9.15774" y1="91.1932" x2="320.226" y2="352.222"><stop stop-color="#33C9FF"/><stop offset="1" stop-color="#0878F9"/></linearGradient>
    <linearGradient id="b" x1="45.3967" y1="43.5594" x2="361.672" y2="354.678"><stop stop-color="#126BFF"/><stop offset="1" stop-color="#1647D8"/></linearGradient>
    <linearGradient id="c" x1="134.852" y1="19.7981" x2="364.538" y2="405.666"><stop stop-color="#2635A6"/><stop offset=".55" stop-color="#182A8B"/><stop offset="1" stop-color="#0D1C68"/></linearGradient>
  </defs>
</svg>
